# xmcd
#
# Track frame offsets:
# 150
# 9310
# 22351
# 40220
# 64798
# 77102
# 87672
# 95915
# 113687
# 132074
# 149475
# 163070
# 178544
# 193926
# 208430
#
# Disc length: 2995 seconds
#
#
# Revision: 0
# Processed by: cddbd v1.5.1PL2 Copyright (c) Steve Scherf et al.
# Submitted via: FreeRIP 2.53 
#
DISCID=e00bb10f
DTITLE=Silvan Zingg and Martijn Schok - Boogie Woogie Duets
DYEAR=2000
DGENRE=Boogie Woogie
TTITLE0=Groovy Keys
TTITLE1=Honky Tonk Train Blues
TTITLE2=Red River Valley
TTITLE3=Blues For A New Century
TTITLE4=Broken B Stomp
TTITLE5=Sixth Avenue Express
TTITLE6=Double Up Boogie
TTITLE7=Cheesecake Blues
TTITLE8=The Fives
TTITLE9=Downhill Boogie Race
TTITLE10=Pinetop's Boogie Woogie
TTITLE11=Things Ain't What They Used To Be
TTITLE12=Really The Blues
TTITLE13=Swanee River Boogie
TTITLE14=Suitcase Blues
EXTD=
EXTT0=
EXTT1=
EXTT2=
EXTT3=
EXTT4=
EXTT5=
EXTT6=
EXTT7=
EXTT8=
EXTT9=
EXTT10=
EXTT11=
EXTT12=
EXTT13=
EXTT14=
PLAYORDER=
